<?xml version="1.0" ?><!DOCTYPE svg  PUBLIC '-//W3C//DTD SVG 1.1//EN'  'http://www.w3.org/Graphics/SVG/1.1/DTD/svg11.dtd'><svg enable-background="new 0 0 512 512" height="512px" version="1.1" viewBox="0 0 512 512" width="512px" xml:space="preserve" xmlns="http://www.w3.org/2000/svg" xmlns:xlink="http://www.w3.org/1999/xlink"><g><g id="Guides"/><g id="Layer_2"><g><path d="M331.529,139.937H182.498c-23.8,0-43.14,19.34-43.14,43.14v149.008c0,23.8,19.339,43.167,43.14,43.167      h149.032c23.773,0,43.141-19.367,43.141-43.167V183.077C374.67,159.276,355.303,139.937,331.529,139.937L331.529,139.937z       M257,335.05c-42.705,0-77.467-34.763-77.467-77.468c0-42.705,34.763-77.467,77.467-77.467      c42.732,0,77.467,34.762,77.467,77.467C334.467,300.287,299.705,335.05,257,335.05L257,335.05z M336.97,196.133      c-10.119,0-18.333-8.211-18.333-18.33c0-10.095,8.214-18.333,18.333-18.333c10.091,0,18.333,8.238,18.333,18.333      C355.303,187.922,347.061,196.133,336.97,196.133L336.97,196.133z M336.97,196.133" fill="#6B463C"/><path d="M257,212.865c-24.644,0-44.718,20.047-44.718,44.717c0,24.671,20.074,44.745,44.718,44.745      c24.671,0,44.745-20.074,44.745-44.745C301.745,232.938,281.671,212.865,257,212.865L257,212.865z M257,212.865" fill="#6B463C"/><path d="M257,6.902c-138.07,0-250,111.93-250,250c0,138.07,111.93,250,250,250c138.07,0,250-111.93,250-250      C507,118.833,395.07,6.902,257,6.902L257,6.902z M407.392,332.085c0,41.861-34.027,75.889-75.862,75.889H182.498      c-41.834,0-75.889-34.027-75.889-75.889V183.077c0-41.831,34.055-75.886,75.889-75.886h149.032      c41.835,0,75.862,34.055,75.862,75.886V332.085z M407.392,332.085" fill="#6B463C"/></g></g></g></svg>