<?xml version="1.0" ?><!DOCTYPE svg  PUBLIC '-//W3C//DTD SVG 1.1//EN'  'http://www.w3.org/Graphics/SVG/1.1/DTD/svg11.dtd'><svg enable-background="new 0 0 512 512" height="512px" version="1.1" viewBox="0 0 512 512" width="512px" xml:space="preserve" xmlns="http://www.w3.org/2000/svg" xmlns:xlink="http://www.w3.org/1999/xlink"><g><g id="Guides"/><g id="Layer_2"><g><path d="M508,256.879c0,138.066-111.934,250-250,250c-138.067,0-250-111.934-250-250      c0-138.067,111.933-250,250-250C396.066,6.879,508,118.812,508,256.879L508,256.879z M508,256.879" fill="#CB2128"/><path d="M278.172,341.655c-18.888-1.479-26.83-10.836-41.649-19.845c-8.16,42.736-18.104,83.711-47.61,105.122      c-9.096-64.605,13.361-113.13,23.806-164.613c-17.778-29.961,2.132-90.242,39.668-75.379      c46.175,18.262-39.995,111.348,17.865,122.968c60.384,12.142,85.038-104.774,47.589-142.811      c-54.117-54.903-157.521-1.24-144.791,77.359c3.09,19.211,22.957,25.043,7.92,51.569c-34.62-7.676-44.956-34.99-43.628-71.395      c2.154-59.601,53.551-101.333,105.122-107.122c65.236-7.292,126.447,23.952,134.891,85.296      C386.862,272.046,347.912,347.03,278.172,341.655L278.172,341.655z M278.172,341.655" fill="#F2F2F2"/></g></g></g></svg>